HIERARCHY
ROOT Hips
{
  OFFSET 0.000000 0.000000 0.000000
  CHANNELS 6 Xposition Yposition Zposition Xrotation Yrotation Zrotation
  JOINT Spine
  {
    OFFSET 1.153752 24.040563 -4.909010
    CHANNELS 3 Xrotation Yrotation Zrotation
    JOINT Chest
    {
      OFFSET 1.153752 24.040563 -4.909010
      CHANNELS 3 Xrotation Yrotation Zrotation
      JOINT Neck
      {
        OFFSET 0.000000 4.932851 0.000000
        CHANNELS 3 Xrotation Yrotation Zrotation
        JOINT Head
        {
          OFFSET 0.000000 5.437762 0.000000
          CHANNELS 3 Xrotation Yrotation Zrotation
          End Site
          {
            OFFSET 0.000000 1.631329 0.000000
          }
        }
      }
      JOINT LeftCollar
      {
        OFFSET 3.000000 4.000000 0.000000
        CHANNELS 3 Xrotation Yrotation Zrotation
        JOINT LeftShoulder
        {
          OFFSET 16.168012 -6.279607 -4.266810
          CHANNELS 3 Xrotation Yrotation Zrotation
          JOINT LeftArm
          {
            OFFSET 6.545061 -21.632230 2.960170
            CHANNELS 3 Xrotation Yrotation Zrotation
            JOINT LeftForeArm
            {
              OFFSET 1.498368 -23.182161 2.338304
              CHANNELS 3 Xrotation Yrotation Zrotation
              JOINT LeftHand
              {
                OFFSET -1.465154 -3.436964 -0.741780
                CHANNELS 3 Xrotation Yrotation Zrotation
                End Site
                {
                  OFFSET -0.439546 -1.031089 -0.222534
                }
              }
            }
          }
        }
      }
      JOINT RightCollar
      {
        OFFSET -3.000000 4.000000 0.000000
        CHANNELS 3 Xrotation Yrotation Zrotation
        JOINT RightShoulder
        {
          OFFSET -16.168012 6.279607 4.266810
          CHANNELS 3 Xrotation Yrotation Zrotation
          JOINT RightArm
          {
            OFFSET -21.602294 -8.789214 -2.250702
            CHANNELS 3 Xrotation Yrotation Zrotation
            JOINT RightForeArm
            {
              OFFSET -22.892153 1.498261 -8.563673
              CHANNELS 3 Xrotation Yrotation Zrotation
              JOINT RightHand
              {
                OFFSET -1.659101 2.167831 -4.005455
                CHANNELS 3 Xrotation Yrotation Zrotation
                End Site
                {
                  OFFSET -0.497730 0.650349 -1.201637
                }
              }
            }
          }
        }
      }
    }
  }
  JOINT LeftUpLeg
  {
    OFFSET 8.955008 -0.525145 1.977289
    CHANNELS 3 Xrotation Yrotation Zrotation
    JOINT LeftLeg
    {
      OFFSET 1.504921 -41.558457 -0.051202
      CHANNELS 3 Xrotation Yrotation Zrotation
      JOINT LeftFoot
      {
        OFFSET -2.334462 -39.878169 12.105340
        CHANNELS 3 Xrotation Yrotation Zrotation
        End Site
        {
          OFFSET -0.700339 -11.963451 3.631602
        }
      }
    }
  }
  JOINT RightUpLeg
  {
    OFFSET -8.955008 0.525145 -1.977289
    CHANNELS 3 Xrotation Yrotation Zrotation
    JOINT RightLeg
    {
      OFFSET 2.492134 -34.880539 -0.332581
      CHANNELS 3 Xrotation Yrotation Zrotation
      JOINT RightFoot
      {
        OFFSET -1.650886 -42.546039 9.164183
        CHANNELS 3 Xrotation Yrotation Zrotation
        End Site
        {
          OFFSET -0.495266 -12.763812 2.749255
        }
      }
    }
  }
}
MOTION
Frames: 7
Frame Time: 0.083333
0.108163 0.179608 0.118119 3.982048 -0.249911 -0.359313 0.000000 0.000000 0.000000 -11.781337 -5.116312 -19.936700 -48.963497 -7.807584 24.962181 0.000000 0.000000 0.000000 5.040921 -13.814475 24.032558 2.533977 16.702106 -9.534667 4.330706 4.161320 11.265338 -5.104171 2.338380 -1.592845 0.000000 0.000000 0.000000 5.040921 -13.814475 24.032558 -21.363020 -23.429974 110.388951 -94.374119 30.033148 -103.720660 38.627122 62.606250 -133.464643 0.000000 0.000000 0.000000 5.914773 0.995211 -3.646064 -23.571808 -0.818550 4.699425 0.000000 0.000000 0.000000 -8.338558 0.082127 7.239971 -3.571463 -1.342822 -14.329863 0.000000 0.000000 0.000000
0.102138 0.186033 0.123375 3.383785 -0.200976 -0.228826 0.000000 0.000000 0.000000 -11.858736 -6.747798 -20.533224 -48.555568 -7.023357 26.397683 0.000000 0.000000 0.000000 5.075695 -13.814882 24.564591 3.490474 18.337149 -9.640262 2.975194 4.004389 11.766507 -5.470119 3.345939 -3.166126 0.000000 0.000000 0.000000 5.075695 -13.814882 24.564591 -23.437402 -32.889332 113.082311 -74.277520 29.821443 -109.925306 33.818279 56.809841 -119.247235 0.000000 0.000000 0.000000 6.408328 0.933222 -3.839506 -23.567497 -0.793943 4.855173 0.000000 0.000000 0.000000 -6.402846 0.076492 6.486752 -7.254332 -1.074716 -13.500584 0.000000 0.000000 0.000000
0.098463 0.190706 0.127094 3.107909 -0.166864 -0.104916 0.000000 0.000000 0.000000 -11.892723 -7.461120 -20.998174 -48.632524 -6.934726 26.876702 0.000000 0.000000 0.000000 5.119883 -13.816057 24.820060 3.981508 19.099655 -9.583110 2.299175 3.889497 11.886171 -5.481709 3.677975 -3.712780 0.000000 0.000000 0.000000 5.119883 -13.816057 24.820060 -22.939616 -33.649221 113.204751 -72.461404 26.635358 -104.753988 38.850121 52.766035 -127.585266 0.000000 0.000000 0.000000 6.602164 0.890570 -4.081039 -23.170073 -0.783687 5.124487 0.000000 0.000000 0.000000 -3.783163 0.093554 5.127056 -13.287993 -0.606061 -11.726503 0.000000 0.000000 0.000000
0.096054 0.193932 0.129136 3.177962 -0.154914 -0.018481 0.000000 0.000000 0.000000 -11.876009 -7.112076 -21.314696 -48.706397 -7.496716 26.531001 0.000000 0.000000 0.000000 5.220295 -13.817986 24.719320 3.846506 18.849303 -9.294031 1.950668 3.832134 12.016779 -5.391379 3.797124 -4.322058 0.000000 0.000000 0.000000 5.220295 -13.817986 24.719320 -22.269594 -33.893548 111.690702 -72.738293 21.922783 -97.330720 43.575339 48.045114 -136.834231 0.000000 0.000000 0.000000 6.461065 0.882742 -4.389796 -22.871960 -0.790133 5.552920 0.000000 0.000000 0.000000 -3.619787 0.095794 4.653989 -13.535701 -0.557640 -10.984931 0.000000 0.000000 0.000000
0.094273 0.196300 0.131178 3.149470 -0.137637 0.072490 0.000000 0.000000 0.000000 -11.872544 -7.038591 -21.540567 -48.646268 -7.745459 26.367662 0.000000 0.000000 0.000000 5.288471 -13.818708 24.707427 3.921513 18.839700 -9.249678 1.674161 3.766509 12.050872 -5.381042 3.963314 -5.132127 0.000000 0.000000 0.000000 5.288471 -13.818708 24.707427 -21.672007 -34.633488 110.278081 -70.928899 18.243766 -93.062948 45.461382 44.260368 -140.427827 0.000000 0.000000 0.000000 6.436202 0.860506 -4.585556 -22.599481 -0.789703 5.768161 0.000000 0.000000 0.000000 -3.423005 0.091282 4.283292 -13.667003 -0.526405 -10.446723 0.000000 0.000000 0.000000
0.092348 0.197798 0.133303 3.281785 -0.133741 0.131126 0.000000 0.000000 0.000000 -11.873595 -7.062060 -21.500694 -48.732525 -7.752390 26.181711 0.000000 0.000000 0.000000 5.132949 -13.818303 24.696650 4.015071 18.867024 -9.180705 1.736874 3.671114 11.629613 -5.389307 3.985248 -5.470348 0.000000 0.000000 0.000000 5.132949 -13.818303 24.696650 -21.372323 -33.876605 109.247666 -71.517782 16.352149 -89.928628 46.968174 42.246083 -143.194738 0.000000 0.000000 0.000000 6.250390 0.865909 -4.873473 -22.256401 -0.794814 6.215916 0.000000 0.000000 0.000000 -3.445370 0.096104 4.047394 -13.565200 -0.519265 -10.111798 0.000000 0.000000 0.000000
0.090410 0.198536 0.136414 3.524066 -0.147448 0.119420 0.000000 0.000000 0.000000 -11.879332 -7.186330 -21.271508 -48.790630 -7.536689 26.114160 0.000000 0.000000 0.000000 4.826636 -13.817284 24.699771 4.302759 18.981698 -9.235540 1.637564 3.477602 10.971212 -5.507168 4.061831 -5.343261 0.000000 0.000000 0.000000 4.826636 -13.817284 24.699771 -21.121588 -32.682758 108.184539 -72.225930 15.598996 -89.406114 47.899404 41.897618 -143.629364 0.000000 0.000000 0.000000 5.951946 0.895308 -5.079408 -21.616032 -0.790903 6.677300 0.000000 0.000000 0.000000 -3.534994 0.117171 3.782364 -13.206033 -0.513513 -9.574803 0.000000 0.000000 0.000000
